{"title":"Rise of the Planet of the Apes (2011) XviD-MAX by (oldBen)","uid":6847940,"size":1468095404,"categoryP":"video","categoryS":"movies","magnet":"?xt=urn:btih:8a943d4f02d56b22cc8025124b5a375be0dbe8f5&amp;dn=Rise+of+the+Planet+of+the+Apes+%282011%29+XviD-MAX+by+%28oldBen%29&amp;tr=udp%3A%2F%2Ftracker.openbittorrent.com%3A80&amp;tr=udp%3A%2F%2Fopen.demonii.com%3A1337&amp;tr=udp%3A%2F%2Ftracker.coppersurfer.tk%3A6969&amp;tr=udp%3A%2F%2Fexodus.desync.com%3A6969","seeders":0,"leechers":0,"uploader":"(oldBen)","files":1,"time":1322414994,"description":"\nFormat                           : AVI\nFormat/Info                      : Audio Video Interleave\nFormat profile                   : OpenDML\nFile size                        : 1.55 GiB\nDuration                         : 1h 44mn\nOverall bit rate                 : 2 121 Kbps\nWriting application              : VirtualDubMod 1.5.10.2 (build 2542/release)\nWriting library                  : VirtualDubMod build 2542/release\nOriginal source form             : MAX TORRENTZ\nCopyright                        : SIGISMUNT\n\nVideo\nID                               : 0\nFormat                           : MPEG-4 Visual\nFormat profile                   : AdvancedSimple@L5\nFormat settings, BVOP            : Yes\nFormat settings, QPel            : No\nFormat settings, GMC             : No warppoints\nFormat settings, Matrix          : Custom\nCodec ID                         : XVID\nCodec ID/Hint                    : XviD\nDuration                         : 1h 44mn\nBit rate                         : 1 732 Kbps\nWidth                            : 720 pixels\nHeight                           : 304 pixels\nDisplay aspect ratio             : 2.35:1\nFrame rate                       : 23.976 fps\nResolution                       : 24 bits\nColorimetry                      : 4:2:0\nScan type                        : Progressive\nBits/(Pixel*Frame)               : 0.330\nStream size                      : 1.27 GiB (82%)\nWriting library                  : XviD 58\n\nAudio\nID                               : 1\nFormat                           : AC-3\nFormat/Info                      : Audio Coding 3\nCodec ID                         : 2000\nDuration                         : 1h 44mn\nBit rate mode                    : Constant\nBit rate                         : 384 Kbps\nChannel(s)                       : 6 channels\nChannel positions                : Front: L C R, Surround: L R, LFE\nSampling rate                    : 48.0 KHz\nStream size                      : 288 MiB (18%)\nAlignment                        : Aligned on interleaves\nInterleave, duration             : 64 ms (1.53 video frames)\nInterleave, preload duration     : 192 ms\n\nSource: DVD (perfect a/v/sync quality,sample included)\nThis torrent is not seedbox supported,please seed it to the MAX\n\n\nSEEEEEEEEEEEEED AND COMMENT PLZZ","torrent":{"xt":"urn:btih:8a943d4f02d56b22cc8025124b5a375be0dbe8f5","amp;dn":"Rise+of+the+Planet+of+the+Apes+%282011%29+XviD-MAX+by+%28oldBen%29","amp;tr":["udp%3A%2F%2Ftracker.openbittorrent.com%3A80","udp%3A%2F%2Fopen.demonii.com%3A1337","udp%3A%2F%2Ftracker.coppersurfer.tk%3A6969","udp%3A%2F%2Fexodus.desync.com%3A6969"],"infoHash":"8a943d4f02d56b22cc8025124b5a375be0dbe8f5","infoHashBuffer":{"type":"Buffer","data":[138,148,61,79,2,213,107,34,204,128,37,18,75,90,55,91,224,219,232,245]},"announce":[],"urlList":[]}}